{"accessors":[{"bufferView":2,"componentType":5126,"count":2145,"max":[5.624086856842041,1.1240869760513306,3.045883893966675],"min":[3.3759140968322754,-1.1240869760513306,-0.0762299969792366],"type":"VEC3"},{"bufferView":2,"byteOffset":25740,"componentType":5126,"count":2145,"max":[0.9992036819458008,0.9992036819458008,0.9854987859725952],"min":[-0.9992036819458008,-0.9992036819458008,-0.9972082376480103],"type":"VEC3"},{"bufferView":1,"componentType":5126,"count":2145,"max":[0.9931650161743164,1.0000430345535278],"min":[-0.052974000573158264,0.00013899999612476677],"type":"VEC2"},{"bufferView":0,"componentType":5125,"count":12288,"type":"SCALAR"},{"bufferView":2,"byteOffset":51480,"componentType":5126,"count":2145,"max":[2.62408709526062,1.1240869760513306,3.045883893966675],"min":[0.3759140074253082,-1.1240869760513306,-0.0762299969792366],"type":"VEC3"},{"bufferView":2,"byteOffset":77220,"componentType":5126,"count":2145,"max":[0.9992036819458008,0.9992036819458008,0.985494077205658],"min":[-0.9992036819458008,-0.9992036819458008,-0.9972082376480103],"type":"VEC3"},{"bufferView":1,"byteOffset":17160,"componentType":5126,"count":2145,"max":[1.1149510145187378,0.9988420009613037],"min":[-0.22919100522994995,0.00008800000068731606],"type":"VEC2"},{"bufferView":0,"byteOffset":49152,"componentType":5125,"count":12288,"type":"SCALAR"},{"bufferView":2,"byteOffset":102960,"componentType":5126,"count":2145,"max":[-0.37591299414634705,1.1240869760513306,3.045883893966675],"min":[-2.6240859031677246,-1.1240869760513306,-0.0762299969792366],"type":"VEC3"},{"bufferView":2,"byteOffset":128700,"componentType":5126,"count":2145,"max":[0.9992036819458008,0.9992036819458008,0.985494077205658],"min":[-0.9992036819458008,-0.9992036819458008,-0.9972082376480103],"type":"VEC3"},{"bufferView":1,"byteOffset":34320,"componentType":5126,"count":2145,"max":[1.3570159673690796,0.9986069798469543],"min":[-0.30905699729919434,0.00022699999681208283],"type":"VEC2"},{"bufferView":0,"byteOffset":98304,"componentType":5125,"count":12288,"type":"SCALAR"},{"bufferView":2,"byteOffset":154440,"componentType":5126,"count":2145,"max":[-3.37591290473938,1.1240869760513306,3.045883893966675],"min":[-5.624085903167725,-1.1240869760513306,-0.0762299969792366],"type":"VEC3"},{"bufferView":2,"byteOffset":180180,"componentType":5126,"count":2145,"max":[0.9992036819458008,0.9992036819458008,0.9854987859725952],"min":[-0.9992036819458008,-0.9992036819458008,-0.9972082376480103],"type":"VEC3"},{"bufferView":1,"byteOffset":51480,"componentType":5126,"count":2145,"max":[3.003710985183716,0.9993799924850464],"min":[-1.9936920404434204,0.0006649999995715916],"type":"VEC2"},{"bufferView":0,"byteOffset":147456,"componentType":5125,"count":12288,"type":"SCALAR"}],"asset":{"extras":{"author":"Render at Night (https://sketchfab.com/Render_at_Night)","license":"CC-BY-4.0 (http://creativecommons.org/licenses/by/4.0/)","source":"https://sketchfab.com/3d-models/easter-eggs-ac0b0892e538449da59f2f9beb66f855","title":"Easter Eggs"},"generator":"Sketchfab-12.68.0","version":"2.0"},"bufferViews":[{"buffer":0,"byteLength":196608,"name":"floatBufferViews","target":34963},{"buffer":0,"byteLength":68640,"byteOffset":196608,"byteStride":8,"name":"floatBufferViews","target":34962},{"buffer":0,"byteLength":205920,"byteOffset":265248,"byteStride":12,"name":"floatBufferViews","target":34962}],"buffers":[{"byteLength":471168,"uri":"data:application/octet-stream;base64,"}],"images":[{"uri":"data:application/octet-stream;base64,"},{"uri":"data:application/octet-stream;base64,"},{"uri":"data:application/octet-stream;base64,"},{"uri":"data:application/octet-stream;base64,"}],"materials":[{"doubleSided":true,"name":"EGG1_TEX","pbrMetallicRoughness":{"baseColorTexture":{"index":0},"metallicFactor":0,"roughnessFactor":0.843491542}},{"doubleSided":true,"name":"EGG2_TEX","pbrMetallicRoughness":{"baseColorTexture":{"index":1},"metallicFactor":0,"roughnessFactor":0.843491542}},{"doubleSided":true,"name":"EGG3_TEX","pbrMetallicRoughness":{"baseColorTexture":{"index":2},"metallicFactor":0,"roughnessFactor":0.843491542}},{"doubleSided":true,"name":"EGG4_TEX","pbrMetallicRoughness":{"baseColorTexture":{"index":3},"metallicFactor":0,"roughnessFactor":0.843491542}}],"meshes":[{"name":"Object_0","primitives":[{"attributes":{"NORMAL":1,"POSITION":0,"TEXCOORD_0":2},"indices":3,"material":0,"mode":4}]},{"name":"Object_1","primitives":[{"attributes":{"NORMAL":5,"POSITION":4,"TEXCOORD_0":6},"indices":7,"material":1,"mode":4}]},{"name":"Object_2","primitives":[{"attributes":{"NORMAL":9,"POSITION":8,"TEXCOORD_0":10},"indices":11,"material":2,"mode":4}]},{"name":"Object_3","primitives":[{"attributes":{"NORMAL":13,"POSITION":12,"TEXCOORD_0":14},"indices":15,"material":3,"mode":4}]}],"nodes":[{"children":[1],"matrix":[1,0,0,0,0,2.220446049250313e-16,-1,0,0,1,2.220446049250313e-16,0,0,0,0,1],"name":"Sketchfab_model"},{"children":[2,3,4,5],"name":"Easter_Eggs_High_Poly.obj.cleaner.materialmerger.gles"},{"mesh":0,"name":"Object_2"},{"mesh":1,"name":"Object_3"},{"mesh":2,"name":"Object_4"},{"mesh":3,"name":"Object_5"}],"samplers":[{"magFilter":9729,"minFilter":9987,"wrapS":10497,"wrapT":10497}],"scene":0,"scenes":[{"name":"Sketchfab_Scene","nodes":[0]}],"textures":[{"sampler":0,"source":0},{"sampler":0,"source":1},{"sampler":0,"source":2},{"sampler":0,"source":3}]}